<svg width="27" height="41" viewBox="0 0 27 41" fill="none" xmlns="http://www.w3.org/2000/svg">
<path d="M8.256 16.83C8.256 18.342 7.812 19.446 6.924 20.142C6.048 20.85 4.902 21.204 3.486 21.204C2.502 21.204 1.74 21.054 1.2 20.754C0.66 20.454 0.39 20.046 0.39 19.53C0.39 18.774 0.816 18.396 1.668 18.396C2.544 18.396 2.982 18.882 2.982 19.854V20.304C2.982 20.64 3.144 20.808 3.468 20.808C3.9 20.808 4.242 20.568 4.494 20.088C4.578 19.92 4.68 19.584 4.8 19.08C4.92 18.588 4.98 17.832 4.98 16.812V7.902V7.47C4.98 7.302 4.962 7.086 4.926 6.822C4.902 6.546 4.758 6.258 4.494 5.958C4.242 5.646 3.834 5.436 3.27 5.328V5.022H9.912V5.328C8.796 5.496 8.238 6.354 8.238 7.902L8.256 16.83Z" fill="#CD5221"/>
<path d="M10.18 18V17.73C10.804 17.67 11.254 17.442 11.53 17.046C11.806 16.638 11.944 16.002 11.944 15.138V6.948C11.944 6.588 11.83 6.24 11.602 5.904C11.386 5.568 10.924 5.364 10.216 5.292V5.022H16.696V5.328C16.276 5.4 15.94 5.598 15.688 5.922C15.364 6.378 15.202 7.038 15.202 7.902V11.466L18.226 8.604C18.454 8.388 18.694 8.13 18.946 7.83C19.366 7.314 19.576 6.84 19.576 6.408C19.576 5.844 19.204 5.49 18.46 5.346L18.478 5.022H23.446V5.328C22.69 5.616 22.078 5.904 21.61 6.192C21.142 6.468 20.722 6.786 20.35 7.146L19.27 8.136L18.064 9.288L22.564 16.308C22.66 16.464 22.774 16.626 22.906 16.794C23.038 16.95 23.188 17.094 23.356 17.226C23.644 17.454 24.022 17.634 24.49 17.766V18H17.776L17.758 17.766C18.514 17.67 18.892 17.376 18.892 16.884C18.892 16.74 18.856 16.566 18.784 16.362L18.316 15.642L17.848 14.904L15.67 11.538L15.202 12.006V15.138C15.202 16.674 15.676 17.538 16.624 17.73V18H10.18Z" fill="#CD5221"/>
<path d="M14.054 35V34.73C14.318 34.73 14.564 34.682 14.792 34.586C15.02 34.478 15.218 34.328 15.386 34.136C15.758 33.692 15.944 33.026 15.944 32.138V24.902C15.944 24.026 15.758 23.366 15.386 22.922C15.122 22.61 14.69 22.412 14.09 22.328V22.022H20.984C22.448 22.022 23.57 22.22 24.35 22.616C25.394 23.156 25.916 24.074 25.916 25.37C25.916 26.51 25.478 27.404 24.602 28.052C23.87 28.58 22.814 28.844 21.434 28.844H19.202V32.138C19.202 33.002 19.4 33.662 19.796 34.118C20.072 34.418 20.504 34.622 21.092 34.73V35H14.054ZM19.202 22.436V28.502H19.904C20.732 28.502 21.374 28.232 21.83 27.692C22.298 27.14 22.532 26.366 22.532 25.37C22.532 24.47 22.31 23.744 21.866 23.192C21.47 22.688 20.84 22.436 19.976 22.436H19.202Z" fill="#CD5221"/>
<path d="M2.108 35V34.73C2.744 34.622 3.206 34.37 3.494 33.974C3.782 33.578 3.926 32.966 3.926 32.138V24.884C3.926 23.9 3.77 23.246 3.458 22.922C3.17 22.586 2.72 22.382 2.108 22.31V22.022H9.272C9.812 22.022 10.268 22.028 10.64 22.04C11.012 22.052 11.3 22.076 11.504 22.112C11.912 22.148 12.344 22.274 12.8 22.49C13.268 22.706 13.664 23.054 13.988 23.534C14.288 24.026 14.438 24.548 14.438 25.1C14.438 26.18 13.982 26.972 13.07 27.476C12.686 27.692 12.044 27.896 11.144 28.088C12.2 28.196 13.016 28.448 13.592 28.844C14.504 29.468 14.96 30.374 14.96 31.562C14.96 32.654 14.516 33.536 13.628 34.208C13.172 34.544 12.704 34.766 12.224 34.874C11.996 34.91 11.66 34.94 11.216 34.964C10.784 34.988 10.238 35 9.578 35H2.108ZM7.184 22.472V27.872H8.282C10.022 27.872 10.892 26.978 10.892 25.19C10.892 23.378 10.082 22.472 8.462 22.472H7.184ZM8.318 28.232H7.184V32.354C7.184 33.146 7.286 33.698 7.49 34.01C7.802 34.454 8.288 34.676 8.948 34.676C9.668 34.676 10.262 34.37 10.73 33.758C11.198 33.146 11.432 32.372 11.432 31.436C11.432 30.44 11.156 29.66 10.604 29.096C10.064 28.52 9.302 28.232 8.318 28.232Z" fill="#CD5221"/>
</svg>
