<svg width="125" height="124" viewBox="0 0 125 124" fill="none" xmlns="http://www.w3.org/2000/svg">
<path d="M5.73817 41.6733L10.4327 35.633C10.8431 35.1056 11.1579 34.5097 11.3639 33.8718L13.7087 26.591C14.1224 25.3086 14.9749 24.212 16.1154 23.4938L22.5937 19.4223C23.1598 19.0657 23.6606 18.6137 24.0709 18.0864L28.7655 12.0461C29.5928 10.9813 30.7686 10.243 32.0867 9.95842L39.5682 8.34789C40.223 8.20727 40.8461 7.9528 41.4138 7.59621L47.8921 3.5247C49.0343 2.8065 50.3909 2.5152 51.7275 2.69935L59.3078 3.74401C59.971 3.83609 60.6443 3.80931 61.2991 3.66869L68.7806 2.05816C70.0987 1.77356 71.4754 1.9644 72.6679 2.59388L79.4342 6.1665C80.0255 6.47956 80.6669 6.68548 81.3302 6.77588L88.9105 7.82054C90.247 8.0047 91.4746 8.65259 92.379 9.65205L97.5158 15.3224C97.9646 15.8179 98.4972 16.2314 99.0884 16.5445L105.855 20.1171C107.047 20.7466 107.98 21.7762 108.488 23.0251L111.373 30.11C111.626 30.7294 111.985 31.3003 112.434 31.7959L117.57 37.4662C118.475 38.4656 118.999 39.7514 119.049 41.0991L119.337 48.7432C119.362 49.4111 119.505 50.0708 119.756 50.6902L122.642 57.7751C123.151 59.024 123.203 60.4119 122.789 61.6943L120.444 68.9751C120.24 69.6113 120.148 70.2793 120.173 70.9473L120.461 78.5914C120.511 79.939 120.086 81.2599 119.258 82.3247L114.564 88.365C114.154 88.8923 113.839 89.4883 113.633 90.1262L111.288 97.407C110.874 98.6894 110.022 99.786 108.881 100.504L102.403 104.576C101.837 104.932 101.336 105.384 100.926 105.912L96.2312 111.952C95.4038 113.017 94.2281 113.755 92.91 114.04L85.4285 115.65C84.7736 115.791 84.1506 116.045 83.5828 116.402L77.1046 120.473C75.9623 121.191 74.6057 121.483 73.2692 121.299L65.6889 120.254C65.0256 120.162 64.3524 120.189 63.6975 120.329L56.216 121.94C54.8979 122.224 53.5212 122.034 52.3287 121.404L45.5624 117.831C44.9712 117.518 44.3297 117.313 43.6665 117.222L36.0862 116.177C34.7497 115.993 33.522 115.345 32.6176 114.346L27.4809 108.676C27.032 108.18 26.4994 107.767 25.9082 107.454L19.1419 103.881C17.9494 103.251 17.0165 102.222 16.509 100.973L13.6233 93.888C13.3704 93.2685 13.012 92.6977 12.5631 92.2021L7.4264 86.5318C6.52199 85.5324 5.99777 84.2466 5.94752 82.8989L5.65945 75.2548C5.63433 74.5868 5.49197 73.9272 5.24074 73.3078L2.355 66.2228C1.84585 64.9739 1.79393 63.5861 2.20761 62.3037L4.55238 55.0229C4.75671 54.3867 4.84883 53.7187 4.82371 53.0507L4.53563 45.4066C4.48539 44.0589 4.9108 42.7364 5.73817 41.6733Z" fill="#CD5221" stroke="#231F20" stroke-width="2" stroke-miterlimit="10"/>
</svg>
